#!OML:ASF F:\VICON\USERDATA\INSTALL\rory3\rory3.ASF
:FULLY-SPECIFIED
:DEGREES
191
root 1.21323 18.0711 4.70926 -4.94027 -0.161057 1.6033
lowerback 9.67865 0.474881 -2.35718
upperback 1.25759 0.427027 0.985813
thorax -4.14384 0.255267 2.29752
lowerneck -16.7645 -2.76564 -1.13651
upperneck 19.4 -3.48118 -0.216935
head 8.85509 -1.74279 -0.318973
rclavicle 5.19325e-015 -9.14409e-015
rhumerus -32.5377 -13.1928 -79.7481
rradius 29.0601
rwrist 2.0277
rhand -13.7657 21.7862
rfingers 7.12502
rthumb 12.3551 -7.82871
lclavicle 5.19325e-015 -9.14409e-015
lhumerus -35.4491 -3.05816 82.6438
lradius 32.2245
lwrist 5.19101
lhand -23.3795 27.0044
lfingers 7.12502
lthumb 3.07662 56.9619
rfemur -25.4439 -2.68348 19.9711
rtibia 70.6627
rfoot -6.80493 -2.51701
rtoes -8.40276
lfemur -6.18173 -2.36677 -26.2463
ltibia 28.523
lfoot -15.469 -1.84807
ltoes -11.3327
192
root 1.21654 18.0531 4.85958 -4.83377 0.128041 1.7592
lowerback 9.70341 0.333645 -2.57184
upperback 1.2187 0.216482 0.998132
thorax -4.18684 0.155597 2.45941
lowerneck -16.8945 -2.75981 -1.23085
upperneck 19.5065 -3.46652 -0.131072
head 8.91873 -1.73284 -0.27567
rclavicle 1.46852e-014 3.97569e-016
rhumerus -32.7664 -12.6331 -79.9459
rradius 29.6111
rwrist 1.76704
rhand -13.8686 22.2122
rfingers 7.12502
rthumb 12.2558 -7.40874
lclavicle 1.46852e-014 3.97569e-016
lhumerus -35.3025 -3.51902 82.732
lradius 32.7036
lwrist 6.34908
lhand -25.2261 22.9611
lfingers 7.12502
lthumb 1.29317 52.937
rfemur -26.3763 -3.0255 19.8719
rtibia 69.2413
rfoot -7.81926 -2.63412
rtoes -10.9682
lfemur -5.81753 -2.39727 -26.4943
ltibia 28.571
lfoot -15.6367 -1.76544
ltoes -11.7188
193
root 1.21793 18.0356 5.0176 -4.89552 0.318509 1.97944
lowerback 9.77152 0.238612 -2.86311
upperback 1.24729 0.0572706 0.988438
thorax -4.18534 0.0809895 2.63504
lowerneck -16.815 -2.74383 -1.1289
upperneck 19.3197 -3.44793 -0.234995
head 8.83607 -1.72876 -0.32216
rclavicle 7.88927e-015 0
rhumerus -32.9554 -12.2973 -80.0934
rradius 30.0456
rwrist 1.57576
rhand -13.9311 22.1825
rfingers 7.12502
rthumb 12.1956 -7.44194
lclavicle 7.88927e-015 0
lhumerus -35.1955 -3.8005 82.6041
lradius 33.4854
lwrist 6.08865
lhand -24.7908 24.7115
lfingers 7.12502
lthumb 1.71359 54.6844
rfemur -27.036 -3.24101 19.6942
rtibia 67.6288
rfoot -8.82245 -2.83895
rtoes -13.7489
lfemur -5.26394 -2.21168 -26.778
ltibia 28.6323
lfoot -15.9458 -1.79774
ltoes -12.5452
194
root 1.21339 18.0283 5.17406 -4.98717 0.517348 1.97411
lowerback 9.85244 0.153964 -3.02192
upperback 1.29383 -0.0716642 1.04155
thorax -4.17289 0.0192167 2.79762
lowerneck -16.5269 -2.7674 -0.902638
upperneck 18.8758 -3.514 -0.35449
head 8.62585 -1.75839 -0.398423
rclavicle 1.676e-014 -1.59028e-014
rhumerus -32.9952 -12.2328 -80.1399
rradius 30.1686
rwrist 1.41439
rhand -13.8673 21.3654
rfingers 7.12502
rthumb 12.257 -8.25541
lclavicle 1.676e-014 -1.59028e-014
lhumerus -34.8859 -4.24336 82.4342
lradius 34.0773
lwrist 5.47973
lhand -23.5768 28.3071
lfingers 7.12502
lthumb 2.88609 58.2673
rfemur -27.4999 -3.3855 19.8189
rtibia 65.8031
rfoot -9.29527 -3.25367
rtoes -15.6425
lfemur -4.57581 -2.31831 -26.7892
ltibia 28.735
lfoot -17.1217 -1.81465
ltoes -10.5658
195
root 1.20227 18.0209 5.31764 -4.93036 0.706039 1.788
lowerback 10.0174 0.041187 -3.11692
upperback 1.23195 -0.23044 1.18723
thorax -4.31719 -0.0532367 3.02668
lowerneck -16.4831 -2.74117 -0.89416
upperneck 18.7964 -3.49623 -0.280622
head 8.59227 -1.74194 -0.371237
rclavicle -6.8208e-015 8.34896e-015
rhumerus -33.1359 -11.9883 -80.2289
rradius 30.3194
rwrist 1.29344
rhand -14.1409 20.8657
rfingers 7.12502
rthumb 11.9932 -8.77069
lclavicle -6.8208e-015 8.34896e-015
lhumerus -34.5662 -4.3966 82.241
lradius 34.5881
lwrist 5.03516
lhand -23.6363 28.43
lfingers 7.12502
lthumb 2.8286 58.391
rfemur -28.1441 -3.41586 20.2128
rtibia 63.8629
rfoot -9.253 -3.90622
rtoes -15.6521
lfemur -4.16305 -2.521 -26.5798
ltibia 28.9018
lfoot -17.5183 -1.67716
ltoes -10.3979
